HIERARCHY
ROOT Hips
{
  OFFSET 60.0527 91.5411 17.9242
  CHANNELS 6 Xposition Yposition Zposition Zrotation Xrotation Yrotation
  JOINT spine
  {
    OFFSET 0 6.84637 0.3937
    CHANNELS 3 Zrotation Xrotation Yrotation
    JOINT spine1
    {
      OFFSET 0 9.49621 0
      CHANNELS 3 Zrotation Xrotation Yrotation
      JOINT spine2
      {
        OFFSET 0 9.09909 0
        CHANNELS 3 Zrotation Xrotation Yrotation
        JOINT Neck
        {
          OFFSET 0 23.3612 1.11378
          CHANNELS 3 Zrotation Xrotation Yrotation
          JOINT Head
          {
            OFFSET 0 7.05802 0
            CHANNELS 3 Zrotation Xrotation Yrotation
            End Site
            {
              OFFSET 0 17.0844 -5.63419
            }
          }
        }
        JOINT RightShoulder
        {
          OFFSET -3.83136 9.82631 -0.533491
          CHANNELS 3 Zrotation Xrotation Yrotation
          JOINT RightArm
          {
            OFFSET 0 12.8881 0
            CHANNELS 3 Zrotation Xrotation Yrotation
            JOINT RightArmRoll
            {
              OFFSET 0 6.50617 0
              CHANNELS 3 Zrotation Xrotation Yrotation
              JOINT RightForeArm
              {
                OFFSET 0 18.9501 0
                CHANNELS 3 Zrotation Xrotation Yrotation
                JOINT RightForeArmRoll
                {
                  OFFSET 0 7.30092 0
                  CHANNELS 3 Zrotation Xrotation Yrotation
                  JOINT RightHand
                  {
                    OFFSET 0 14.6514 0
                    CHANNELS 3 Zrotation Xrotation Yrotation
                    End Site
                    {
                      OFFSET 0 0 0
                    }
                  }
                }
              }
            }
          }
        }
        JOINT LeftShoulder
        {
          OFFSET 3.83136 9.82631 -0.533491
          CHANNELS 3 Zrotation Xrotation Yrotation
          JOINT LeftArm
          {
            OFFSET 0 12.8881 0
            CHANNELS 3 Zrotation Xrotation Yrotation
            JOINT LeftArmRoll
            {
              OFFSET 0 6.50617 0
              CHANNELS 3 Zrotation Xrotation Yrotation
              JOINT LeftForeArm
              {
                OFFSET 0 18.9501 0
                CHANNELS 3 Zrotation Xrotation Yrotation
                JOINT LeftForeArmRoll
                {
                  OFFSET 0 7.30092 0
                  CHANNELS 3 Zrotation Xrotation Yrotation
                  JOINT LeftHand
                  {
                    OFFSET 0 14.6514 0
                    CHANNELS 3 Zrotation Xrotation Yrotation
                    End Site
                    {
                      OFFSET 0 0 0
                    }
                  }
                }
              }
            }
          }
        }
      }
    }
  }
  JOINT RightUpLeg
  {
    OFFSET -6.06837 -1.11278 -0.933477
    CHANNELS 3 Zrotation Xrotation Yrotation
    JOINT RightUpLegRoll
    {
      OFFSET 0 17.1796 0
      CHANNELS 3 Zrotation Xrotation Yrotation
      JOINT RightLeg
      {
        OFFSET 0 -21.2743 0
        CHANNELS 3 Zrotation Xrotation Yrotation
        JOINT RightLegRoll
        {
          OFFSET 0 21.3439 0
          CHANNELS 3 Zrotation Xrotation Yrotation
          JOINT RightFoot
          {
            OFFSET 0 17.7652 0
            CHANNELS 3 Zrotation Xrotation Yrotation
            JOINT RightToeBase
            {
              OFFSET 0 14.8508 0
              CHANNELS 3 Zrotation Xrotation Yrotation
              End Site
              {
                OFFSET 0.0062947 7.19214 -0.829004
              }
            }
          }
        }
      }
    }
  }
  JOINT LeftUpLeg
  {
    OFFSET 6.06837 -1.11278 -0.933477
    CHANNELS 3 Zrotation Xrotation Yrotation
    JOINT LeftUpLegRoll
    {
      OFFSET 0 17.1797 0
      CHANNELS 3 Zrotation Xrotation Yrotation
      JOINT LeftLeg
      {
        OFFSET 0 21.2742 0
        CHANNELS 3 Zrotation Xrotation Yrotation
        JOINT LeftLegRoll
        {
          OFFSET 0 21.5412 0
          CHANNELS 3 Zrotation Xrotation Yrotation
          JOINT LeftFoot
          {
            OFFSET 0 17.5679 0
            CHANNELS 3 Zrotation Xrotation Yrotation
            JOINT LeftToeBase
            {
              OFFSET 0 14.8508 0
              CHANNELS 3 Zrotation Xrotation Yrotation
              End Site
              {
                OFFSET -0.0282102 7.19214 -0.829005
              }
            }
          }
        }
      }
    }
  }
}
MOTION
Frames: 11
Frame Time: 0.00208333
60.5719 122.564 26.3265 2.7482 6.11173 -2.28077 -0.132151 -2.47252 0.195118 -0.257356 -0.942687 0.401738 -0.262193 0.702359 0.406084 -2.65312 18.9346 -0.3771 -0.543777 -0.230886 -1.3697 66.609 -2.71267 -2.33716 96.965 -3.84265 20.6524 4.70769e-007 -2.04157e-008 -3.55975e-006 8.12564 14.6625 -2.27258 3.33934e-006 -1.03892e-006 -3 8.02887 -4.95155 0.697739 -52.9522 -1.48286 0.232927 -112.546 5.44342 -24.9671 2.12008e-008 -2.87908e-007 1.9264e-006 -7.70764 4.64301 0.610935 -1.32642e-005 -6.96793e-007 3.01029 -8.02887 -4.95145 -0.697681 171.694 16.8822 2.45519 180 7.01567e-015 179.012 179.444 13.8808 179.543 2.55511e-006 -6.60703e-007 0.0681979 -17.3712 66.2026 18.1606 8.135 25.2327 -3.4871 -176.672 12.8893 0.609905 4.54188e-006 -4.6773e-006 -1.02105 -1.31517 -19.3396 0.457508 -4.18653e-007 -4.00229e-006 -0.245956 18.334 67.6578 -19.2549 -8.13649 25.2327 3.48774 
60.6133 122.355 26.3088 2.72106 6.12224 -2.28229 -0.128637 -2.46934 0.193135 -0.25042 -0.936304 0.397471 -0.255205 0.708743 0.4017 -2.64014 18.8827 -0.373974 -0.563985 -0.214518 -1.36271 66.5767 -2.72095 -2.33856 97.0218 -3.86192 20.638 4.70769e-007 -2.04157e-008 -3.55975e-006 8.13046 14.6871 -2.27528 3.33934e-006 -1.03892e-006 -3 8.02887 -4.95155 0.697739 -52.9385 -1.47208 0.223708 -112.561 5.41863 -24.9082 2.12008e-008 -2.87908e-007 1.9264e-006 -7.76155 4.71657 0.621405 -1.32642e-005 -6.96793e-007 3.01028 -8.02887 -4.95145 -0.697681 171.735 16.8586 2.439 180 7.01567e-015 179.013 179.419 13.8153 179.549 2.55511e-006 -6.60703e-007 0.0686672 -17.3756 66.2088 18.1657 8.13499 25.2327 -3.48709 -176.642 12.8773 0.601207 4.54188e-006 -4.6773e-006 -1.02037 -1.31123 -19.2583 0.456309 -4.18653e-007 -4.00229e-006 -0.244279 18.3301 67.6522 -19.2508 -8.13649 25.2327 3.48774 
60.5965 122.107 26.3053 2.69133 6.13126 -2.28182 -0.124701 -2.46581 0.190825 -0.242654 -0.929233 0.392514 -0.247379 0.715815 0.396613 -2.6201 18.8314 -0.371818 -0.594551 -0.197898 -1.35516 66.5475 -2.72602 -2.3385 97.0767 -3.88206 20.621 4.70769e-007 -2.04157e-008 -3.55975e-006 8.13755 14.7126 -2.27823 3.33934e-006 -1.03892e-006 -3 8.02887 -4.95155 0.697739 -52.9221 -1.46219 0.214769 -112.581 5.39575 -24.8434 2.12008e-008 -2.87908e-007 1.9264e-006 -7.81904 4.78849 0.632098 -1.32642e-005 -6.96793e-007 3.01028 -8.02887 -4.95145 -0.697681 171.779 16.8334 2.422 180 7.01567e-015 179.015 179.392 13.7511 179.555 2.55511e-006 -6.60703e-007 0.069174 -17.3799 66.215 18.1709 8.13497 25.2327 -3.48709 -176.609 12.8645 0.590529 4.54188e-006 -4.6773e-006 -1.01977 -1.30722 -19.1781 0.45514 -4.18653e-007 -4.00229e-006 -0.242585 18.326 67.6463 -19.2466 -8.13649 25.2327 3.48774 
60.6223 121.904 26.305 2.65947 6.13908 -2.27981 -0.120414 -2.46198 0.188245 -0.234197 -0.921546 0.386988 -0.238855 0.723503 0.390945 -2.5943 18.7802 -0.370422 -0.633556 -0.180946 -1.34713 66.5209 -2.72829 -2.33717 97.1302 -3.90269 20.6017 4.70769e-007 -2.04157e-008 -3.55975e-006 8.14646 14.7387 -2.28139 3.33934e-006 -1.03892e-006 -3 8.02887 -4.95155 0.697739 -52.9036 -1.45322 0.206206 -112.604 5.37501 -24.7737 2.12008e-008 -2.87908e-007 1.9264e-006 -7.87917 4.85843 0.6429 -1.32642e-005 -6.96793e-007 3.01027 -8.02887 -4.95145 -0.697681 171.825 16.8069 2.40424 180 7.01568e-015 179.017 179.365 13.688 179.56 2.55511e-006 -6.60703e-007 0.0697052 -17.3842 66.2211 18.1761 8.13496 25.2327 -3.48708 -176.574 12.851 0.578176 4.54188e-006 -4.6773e-006 -1.01922 -1.30318 -19.0989 0.453995 -4.18653e-007 -4.00229e-006 -0.240883 18.3219 67.6403 -19.2423 -8.13649 25.2327 3.48774 
60.6327 121.671 26.2998 2.6259 6.14596 -2.27671 -0.115847 -2.45787 0.185452 -0.225187 -0.913314 0.381011 -0.229773 0.731736 0.384818 -2.56402 18.7289 -0.369579 -0.679081 -0.16358 -1.33866 66.4965 -2.72816 -2.33474 97.1828 -3.9234 20.5807 4.70769e-007 -2.04157e-008 -3.55975e-006 8.15676 14.7654 -2.28472 3.33934e-006 -1.03892e-006 -3 8.02887 -4.95155 0.697739 -52.8837 -1.4452 0.198112 -112.63 5.35664 -24.7002 2.12008e-008 -2.87908e-007 1.9264e-006 -7.94098 4.92606 0.653694 -1.32642e-005 -6.96793e-007 3.01027 -8.02887 -4.95145 -0.697681 171.873 16.7797 2.38578 180 7.01568e-015 179.019 179.337 13.6261 179.566 2.55511e-006 -6.60703e-007 0.0702475 -17.3884 66.2271 18.1812 8.13495 25.2327 -3.48708 -176.537 12.8372 0.564453 4.54188e-006 -4.6773e-006 -1.01872 -1.29913 -19.0208 0.452869 -4.18653e-007 -4.00229e-006 -0.239183 18.3178 67.6343 -19.238 -8.13649 25.2327 3.48774 
60.634 121.46 26.3189 2.59108 6.15217 -2.27295 -0.111071 -2.45353 0.182504 -0.215764 -0.90461 0.374705 -0.220274 0.740442 0.378353 -2.53056 18.6772 -0.369079 -0.729206 -0.14572 -1.32983 66.4737 -2.72605 -2.3314 97.235 -3.94381 20.5583 4.70769e-007 -2.04157e-008 -3.55975e-006 8.16799 14.7925 -2.28817 3.33934e-006 -1.03892e-006 -3 8.02887 -4.95155 0.697739 -52.8627 -1.43818 0.19058 -112.659 5.34086 -24.6243 2.12008e-008 -2.87908e-007 1.9264e-006 -8.00351 4.99105 0.664366 -1.32642e-005 -6.96793e-007 3.01026 -8.02887 -4.95145 -0.697681 171.922 16.7522 2.36667 180 7.01568e-015 179.02 179.309 13.5653 179.572 2.55511e-006 -6.60703e-007 0.0707878 -17.3924 66.2327 18.1861 8.13494 25.2327 -3.48707 -176.498 12.8232 0.549665 4.54188e-006 -4.6773e-006 -1.01824 -1.2951 -18.9435 0.451754 -4.18653e-007 -4.00229e-006 -0.237497 18.3138 67.6283 -19.2338 -8.13649 25.2327 3.48774 
60.6265 121.201 26.3006 2.55545 6.15798 -2.269 -0.106155 -2.44899 0.179456 -0.206067 -0.895504 0.368189 -0.210498 0.749548 0.371675 -2.4952 18.6248 -0.368715 -0.782012 -0.127286 -1.32069 66.452 -2.72235 -2.32733 97.2874 -3.96354 20.5351 4.70769e-007 -2.04157e-008 -3.55975e-006 8.17973 14.8198 -2.29168 3.33934e-006 -1.03892e-006 -3 8.02887 -4.95155 0.697739 -52.8414 -1.4322 0.183704 -112.689 5.32791 -24.5469 2.12008e-008 -2.87908e-007 1.9264e-006 -8.06582 5.05305 0.6748 -1.32642e-005 -6.96793e-007 3.01025 -8.02887 -4.95145 -0.697681 171.973 16.7247 2.34696 180 7.01569e-015 179.022 179.281 13.5056 179.577 2.55511e-006 -6.60703e-007 0.0713129 -17.3962 66.238 18.1907 8.13493 25.2327 -3.48707 -176.459 12.8093 0.534117 4.54188e-006 -4.6773e-006 -1.01778 -1.2911 -18.8671 0.450644 -4.18653e-007 -4.00229e-006 -0.235833 18.3101 67.6227 -19.2299 -8.13649 25.2327 3.48774 
60.6546 120.978 26.298 2.51944 6.16365 -2.26529 -0.101172 -2.44428 0.176366 -0.196234 -0.88607 0.361583 -0.200586 0.758984 0.364904 -2.45923 18.5715 -0.368279 -0.835579 -0.108196 -1.3113 66.4311 -2.71748 -2.32269 97.3405 -3.9822 20.5115 4.70769e-007 -2.04157e-008 -3.55975e-006 8.19151 14.8471 -2.29523 3.33934e-006 -1.03892e-006 -3 8.02887 -4.95155 0.697739 -52.8201 -1.42728 0.177577 -112.721 5.31803 -24.4694 2.12008e-008 -2.87908e-007 1.9264e-006 -8.12694 5.11174 0.684878 -1.32642e-005 -6.96793e-007 3.01025 -8.02887 -4.95145 -0.697681 172.024 16.6977 2.3267 180 7.01569e-015 179.024 179.253 13.4468 179.583 2.55511e-006 -6.60703e-007 0.0718097 -17.3996 66.2429 18.1951 8.13492 25.2327 -3.48706 -176.418 12.7959 0.518113 4.54188e-006 -4.6773e-006 -1.01733 -1.28718 -18.7915 0.449533 -4.18653e-007 -4.00229e-006 -0.234202 18.3066 67.6174 -19.2263 -8.13649 25.2327 3.48774 
60.6409 120.716 26.2867 2.48349 6.16947 -2.26226 -0.0961909 -2.43945 0.173291 -0.186407 -0.876379 0.355007 -0.190678 0.768676 0.358162 -2.42395 18.5169 -0.367562 -0.887988 -0.0883694 -1.30172 66.4104 -2.71185 -2.31768 97.3948 -3.99939 20.4879 4.70769e-007 -2.04157e-008 -3.55975e-006 8.20291 14.8744 -2.29875 3.33934e-006 -1.03892e-006 -3 8.02887 -4.95155 0.697739 -52.7996 -1.42348 0.172294 -112.753 5.31146 -24.3928 2.12008e-008 -2.87908e-007 1.9264e-006 -8.18593 5.16678 0.694487 -1.32642e-005 -6.96793e-007 3.01024 -8.02887 -4.95145 -0.697681 172.076 16.6716 2.30594 180 7.01569e-015 179.026 179.225 13.389 179.588 2.55511e-006 -6.60703e-007 0.0722651 -17.4027 66.2472 18.1991 8.13491 25.2327 -3.48706 -176.378 12.783 0.501957 4.54188e-006 -4.6773e-006 -1.01685 -1.28335 -18.7167 0.448415 -4.18653e-007 -4.00229e-006 -0.232615 18.3035 67.6127 -19.223 -8.13649 25.2327 3.48774 
60.6393 120.495 26.3206 2.44806 6.17569 -2.26036 -0.0912838 -2.43452 0.170288 -0.176723 -0.866502 0.348581 -0.180916 0.778554 0.351573 -2.39063 18.4607 -0.366358 -0.937318 -0.0677261 -1.29201 66.3895 -2.70586 -2.31247 97.4508 -4.01472 20.4647 4.70769e-007 -2.04157e-008 -3.55975e-006 8.21347 14.9013 -2.30221 3.33934e-006 -1.03892e-006 -3 8.02887 -4.95155 0.697739 -52.7802 -1.42081 0.167947 -112.785 5.30843 -24.3183 2.12008e-008 -2.87908e-007 1.9264e-006 -8.24182 5.21783 0.703509 -1.32642e-005 -6.96793e-007 3.01024 -8.02887 -4.95145 -0.697681 172.128 16.6469 2.28474 180 7.0157e-015 179.027 179.199 13.332 179.593 2.55511e-006 -6.60703e-007 0.0726658 -17.4053 66.251 18.2026 8.1349 25.2327 -3.48706 -176.337 12.7711 0.485953 4.54188e-006 -4.6773e-006 -1.01636 -1.27964 -18.6425 0.447283 -4.18653e-007 -4.00229e-006 -0.231082 18.3009 67.6086 -19.2202 -8.13649 25.2327 3.48774 
60.6314 120.228 26.2999 2.41357 6.1826 -2.26004 -0.0865211 -2.42953 0.167413 -0.167322 -0.856512 0.342424 -0.171441 0.788546 0.345259 -2.36056 18.4027 -0.364459 -0.98165 -0.046185 -1.28223 66.3678 -2.69992 -2.30724 97.5091 -4.02781 20.4425 4.70769e-007 -2.04157e-008 -3.55975e-006 8.22276 14.9278 -2.30555 3.33934e-006 -1.03892e-006 -3 8.02887 -4.95155 0.697739 -52.7626 -1.41934 0.164631 -112.816 5.30918 -24.2471 2.12008e-008 -2.87908e-007 1.9264e-006 -8.29366 5.26457 0.711829 -1.32642e-005 -6.96793e-007 3.01023 -8.02887 -4.95145 -0.697681 172.179 16.6239 2.26314 180 7.0157e-015 179.029 179.173 13.2759 179.599 2.55511e-006 -6.60703e-007 0.0729988 -17.4075 66.254 18.2056 8.13489 25.2327 -3.48705 -176.298 12.7604 0.470407 4.54188e-006 -4.6773e-006 -1.01582 -1.27608 -18.5688 0.446132 -4.18653e-007 -4.00229e-006 -0.229613 18.2988 67.6053 -19.2181 -8.13649 25.2327 3.48774 
